<svg xmlns="http://www.w3.org/2000/svg" viewBox="-40 -40 592 592">
  <defs>
    <linearGradient id="gold" x1="0" y1="0" x2="1" y2="1">
      <stop offset="0" stop-color="#FFD97A"/>
      <stop offset="1" stop-color="#B08A3C"/>
    </linearGradient>
  </defs>

  <!-- Big fill, safe: no Y shift, just zoom. Extra padding in viewBox prevents clipping. -->
  <g transform="translate(256 256) scale(1.55) translate(-256 -256)">

    <path d="M256 64
             C176 64 112 128 112 208
             C112 304 210 382 246 410
             C252 415 260 415 266 410
             C302 382 400 304 400 208
             C400 128 336 64 256 64 Z"
          fill="#0B0B0B"
          stroke="url(#gold)"
          stroke-width="12"
          stroke-linejoin="round"/>

    <circle cx="256" cy="210" r="122"
            fill="none"
            stroke="url(#gold)"
            stroke-width="9"
            opacity="0.9"/>

    <g fill="none" stroke="#FFD97A" stroke-linecap="round" stroke-linejoin="round">
      <path d="M256 120 L256 310" stroke-width="12"/>
      <path d="M196 130 L316 130" stroke-width="11"/>

      <circle cx="256" cy="205" r="62" stroke-width="11"/>
      <circle cx="228" cy="235" r="62" stroke-width="11" opacity="0.95"/>
      <circle cx="284" cy="235" r="62" stroke-width="11" opacity="0.95"/>

      <path d="M256 310 L256 346" stroke-width="12"/>
    </g>

    <path d="M256 430 L256 458"
          stroke="url(#gold)"
          stroke-width="6"
          stroke-linecap="round"
          opacity="0.5"/>
  </g>
</svg>
